<?xml version="1.0" encoding="utf-8" standalone="no"?>
<!DOCTYPE svg PUBLIC "-//W3C//DTD SVG 1.1//EN"
  "http://www.w3.org/Graphics/SVG/1.1/DTD/svg11.dtd">
<svg xmlns:xlink="http://www.w3.org/1999/xlink" width="557.323137pt" height="344.400859pt" viewBox="0 0 557.323137 344.400859" xmlns="http://www.w3.org/2000/svg" version="1.1">
 <metadata>
  <rdf:RDF xmlns:dc="http://purl.org/dc/elements/1.1/" xmlns:cc="http://creativecommons.org/ns#" xmlns:rdf="http://www.w3.org/1999/02/22-rdf-syntax-ns#">
   <cc:Work>
    <dc:type rdf:resource="http://purl.org/dc/dcmitype/StillImage"/>
    <dc:date>2026-07-03T09:38:55.819354</dc:date>
    <dc:format>image/svg+xml</dc:format>
    <dc:creator>
     <cc:Agent>
      <dc:title>Matplotlib v3.11.0, https://matplotlib.org/</dc:title>
     </cc:Agent>
    </dc:creator>
   </cc:Work>
  </rdf:RDF>
 </metadata>
 <defs>
  <style type="text/css">*{stroke-linejoin: round; stroke-linecap: butt}</style>
 </defs>
 <g id="figure_1">
  <g id="patch_1">
   <path d="M 0 344.400859 
L 557.323137 344.400859 
L 557.323137 0 
L 0 0 
z
" style="fill: #0f1117"/>
  </g>
  <g id="axes_1">
   <g id="patch_2">
    <path d="M 52.379609 300.2 
L 525.816629 300.2 
L 525.816629 7.2 
L 52.379609 7.2 
z
" style="fill: #1a1d27"/>
   </g>
   <g id="FillBetweenPolyCollection_1">
    <defs>
     <path id="m383437c5a7" d="M 52.379609 -44.200859 
L 52.379609 -44.200859 
L 125.216074 -92.146314 
L 198.052538 -145.419041 
L 270.889003 -190.700859 
L 343.725467 -198.691768 
L 416.561932 -204.019041 
L 489.398396 -204.019041 
L 489.398396 -299.90995 
L 489.398396 -299.90995 
L 416.561932 -283.928132 
L 343.725467 -257.291768 
L 270.889003 -209.346314 
L 198.052538 -150.746314 
L 125.216074 -92.146314 
L 52.379609 -44.200859 
z
" style="stroke: #a78bfa; stroke-opacity: 0.15"/>
    </defs>
    <g clip-path="url(#ped0b00bbf7)">
     <use xlink:href="#m383437c5a7" x="0" y="344.400859" style="fill: #a78bfa; fill-opacity: 0.15; stroke: #a78bfa; stroke-opacity: 0.15"/>
    </g>
   </g>
   <g id="matplotlib.axis_1">
    <g id="xtick_1">
     <g id="line2d_1">
      <path d="M 52.379609 300.2 
L 52.379609 7.2 
" clip-path="url(#ped0b00bbf7)" style="fill: none; stroke: #2a2d3a; stroke-opacity: 0.3; stroke-width: 0.5; stroke-linecap: square"/>
     </g>
     <g id="line2d_2">
      <defs>
       <path id="m49bf393315" d="M 0 0 
L 0 3.5 
" style="stroke: #6b7085; stroke-width: 0.8"/>
      </defs>
      <g>
       <use xlink:href="#m49bf393315" x="52.379609" y="300.2" style="fill: #6b7085; stroke: #6b7085; stroke-width: 0.8"/>
      </g>
     </g>
     <g id="text_1">
      <!-- 0 -->
      <g style="fill: #6b7085" transform="translate(49.516484 314.037891) scale(0.09 -0.09)">
       <defs>
        <path id="DejaVuSans-13" d="M 2034 4250 
Q 1547 4250 1301 3770 
Q 1056 3291 1056 2328 
Q 1056 1369 1301 889 
Q 1547 409 2034 409 
Q 2525 409 2770 889 
Q 3016 1369 3016 2328 
Q 3016 3291 2770 3770 
Q 2525 4250 2034 4250 
z
M 2034 4750 
Q 2819 4750 3233 4129 
Q 3647 3509 3647 2328 
Q 3647 1150 3233 529 
Q 2819 -91 2034 -91 
Q 1250 -91 836 529 
Q 422 1150 422 2328 
Q 422 3509 836 4129 
Q 1250 4750 2034 4750 
z
" transform="scale(0.015625)"/>
       </defs>
       <use xlink:href="#DejaVuSans-13"/>
      </g>
     </g>
    </g>
    <g id="xtick_2">
     <g id="line2d_3">
      <path d="M 125.216074 300.2 
L 125.216074 7.2 
" clip-path="url(#ped0b00bbf7)" style="fill: none; stroke: #2a2d3a; stroke-opacity: 0.3; stroke-width: 0.5; stroke-linecap: square"/>
     </g>
     <g id="line2d_4">
      <g>
       <use xlink:href="#m49bf393315" x="125.216074" y="300.2" style="fill: #6b7085; stroke: #6b7085; stroke-width: 0.8"/>
      </g>
     </g>
     <g id="text_2">
      <!-- 20 -->
      <g style="fill: #6b7085" transform="translate(119.489824 314.037891) scale(0.09 -0.09)">
       <defs>
        <path id="DejaVuSans-15" d="M 1228 531 
L 3431 531 
L 3431 0 
L 469 0 
L 469 531 
Q 828 903 1448 1529 
Q 2069 2156 2228 2338 
Q 2531 2678 2651 2914 
Q 2772 3150 2772 3378 
Q 2772 3750 2511 3984 
Q 2250 4219 1831 4219 
Q 1534 4219 1204 4116 
Q 875 4013 500 3803 
L 500 4441 
Q 881 4594 1212 4672 
Q 1544 4750 1819 4750 
Q 2544 4750 2975 4387 
Q 3406 4025 3406 3419 
Q 3406 3131 3298 2873 
Q 3191 2616 2906 2266 
Q 2828 2175 2409 1742 
Q 1991 1309 1228 531 
z
" transform="scale(0.015625)"/>
       </defs>
       <use xlink:href="#DejaVuSans-15"/>
       <use xlink:href="#DejaVuSans-13" transform="translate(63.625 0)"/>
      </g>
     </g>
    </g>
    <g id="xtick_3">
     <g id="line2d_5">
      <path d="M 198.052538 300.2 
L 198.052538 7.2 
" clip-path="url(#ped0b00bbf7)" style="fill: none; stroke: #2a2d3a; stroke-opacity: 0.3; stroke-width: 0.5; stroke-linecap: square"/>
     </g>
     <g id="line2d_6">
      <g>
       <use xlink:href="#m49bf393315" x="198.052538" y="300.2" style="fill: #6b7085; stroke: #6b7085; stroke-width: 0.8"/>
      </g>
     </g>
     <g id="text_3">
      <!-- 40 -->
      <g style="fill: #6b7085" transform="translate(192.326288 314.037891) scale(0.09 -0.09)">
       <defs>
        <path id="DejaVuSans-17" d="M 2419 4116 
L 825 1625 
L 2419 1625 
L 2419 4116 
z
M 2253 4666 
L 3047 4666 
L 3047 1625 
L 3713 1625 
L 3713 1100 
L 3047 1100 
L 3047 0 
L 2419 0 
L 2419 1100 
L 313 1100 
L 313 1709 
L 2253 4666 
z
" transform="scale(0.015625)"/>
       </defs>
       <use xlink:href="#DejaVuSans-17"/>
       <use xlink:href="#DejaVuSans-13" transform="translate(63.625 0)"/>
      </g>
     </g>
    </g>
    <g id="xtick_4">
     <g id="line2d_7">
      <path d="M 270.889003 300.2 
L 270.889003 7.2 
" clip-path="url(#ped0b00bbf7)" style="fill: none; stroke: #2a2d3a; stroke-opacity: 0.3; stroke-width: 0.5; stroke-linecap: square"/>
     </g>
     <g id="line2d_8">
      <g>
       <use xlink:href="#m49bf393315" x="270.889003" y="300.2" style="fill: #6b7085; stroke: #6b7085; stroke-width: 0.8"/>
      </g>
     </g>
     <g id="text_4">
      <!-- 60 -->
      <g style="fill: #6b7085" transform="translate(265.162753 314.037891) scale(0.09 -0.09)">
       <defs>
        <path id="DejaVuSans-19" d="M 2113 2584 
Q 1688 2584 1439 2293 
Q 1191 2003 1191 1497 
Q 1191 994 1439 701 
Q 1688 409 2113 409 
Q 2538 409 2786 701 
Q 3034 994 3034 1497 
Q 3034 2003 2786 2293 
Q 2538 2584 2113 2584 
z
M 3366 4563 
L 3366 3988 
Q 3128 4100 2886 4159 
Q 2644 4219 2406 4219 
Q 1781 4219 1451 3797 
Q 1122 3375 1075 2522 
Q 1259 2794 1537 2939 
Q 1816 3084 2150 3084 
Q 2853 3084 3261 2657 
Q 3669 2231 3669 1497 
Q 3669 778 3244 343 
Q 2819 -91 2113 -91 
Q 1303 -91 875 529 
Q 447 1150 447 2328 
Q 447 3434 972 4092 
Q 1497 4750 2381 4750 
Q 2619 4750 2861 4703 
Q 3103 4656 3366 4563 
z
" transform="scale(0.015625)"/>
       </defs>
       <use xlink:href="#DejaVuSans-19"/>
       <use xlink:href="#DejaVuSans-13" transform="translate(63.625 0)"/>
      </g>
     </g>
    </g>
    <g id="xtick_5">
     <g id="line2d_9">
      <path d="M 343.725467 300.2 
L 343.725467 7.2 
" clip-path="url(#ped0b00bbf7)" style="fill: none; stroke: #2a2d3a; stroke-opacity: 0.3; stroke-width: 0.5; stroke-linecap: square"/>
     </g>
     <g id="line2d_10">
      <g>
       <use xlink:href="#m49bf393315" x="343.725467" y="300.2" style="fill: #6b7085; stroke: #6b7085; stroke-width: 0.8"/>
      </g>
     </g>
     <g id="text_5">
      <!-- 80 -->
      <g style="fill: #6b7085" transform="translate(337.999217 314.037891) scale(0.09 -0.09)">
       <defs>
        <path id="DejaVuSans-1b" d="M 2034 2216 
Q 1584 2216 1326 1975 
Q 1069 1734 1069 1313 
Q 1069 891 1326 650 
Q 1584 409 2034 409 
Q 2484 409 2743 651 
Q 3003 894 3003 1313 
Q 3003 1734 2745 1975 
Q 2488 2216 2034 2216 
z
M 1403 2484 
Q 997 2584 770 2862 
Q 544 3141 544 3541 
Q 544 4100 942 4425 
Q 1341 4750 2034 4750 
Q 2731 4750 3128 4425 
Q 3525 4100 3525 3541 
Q 3525 3141 3298 2862 
Q 3072 2584 2669 2484 
Q 3125 2378 3379 2068 
Q 3634 1759 3634 1313 
Q 3634 634 3220 271 
Q 2806 -91 2034 -91 
Q 1263 -91 848 271 
Q 434 634 434 1313 
Q 434 1759 690 2068 
Q 947 2378 1403 2484 
z
M 1172 3481 
Q 1172 3119 1398 2916 
Q 1625 2713 2034 2713 
Q 2441 2713 2670 2916 
Q 2900 3119 2900 3481 
Q 2900 3844 2670 4047 
Q 2441 4250 2034 4250 
Q 1625 4250 1398 4047 
Q 1172 3844 1172 3481 
z
" transform="scale(0.015625)"/>
       </defs>
       <use xlink:href="#DejaVuSans-1b"/>
       <use xlink:href="#DejaVuSans-13" transform="translate(63.625 0)"/>
      </g>
     </g>
    </g>
    <g id="xtick_6">
     <g id="line2d_11">
      <path d="M 416.561932 300.2 
L 416.561932 7.2 
" clip-path="url(#ped0b00bbf7)" style="fill: none; stroke: #2a2d3a; stroke-opacity: 0.3; stroke-width: 0.5; stroke-linecap: square"/>
     </g>
     <g id="line2d_12">
      <g>
       <use xlink:href="#m49bf393315" x="416.561932" y="300.2" style="fill: #6b7085; stroke: #6b7085; stroke-width: 0.8"/>
      </g>
     </g>
     <g id="text_6">
      <!-- 100 -->
      <g style="fill: #6b7085" transform="translate(407.972557 314.037891) scale(0.09 -0.09)">
       <defs>
        <path id="DejaVuSans-14" d="M 794 531 
L 1825 531 
L 1825 4091 
L 703 3866 
L 703 4441 
L 1819 4666 
L 2450 4666 
L 2450 531 
L 3481 531 
L 3481 0 
L 794 0 
L 794 531 
z
" transform="scale(0.015625)"/>
       </defs>
       <use xlink:href="#DejaVuSans-14"/>
       <use xlink:href="#DejaVuSans-13" transform="translate(63.625 0)"/>
       <use xlink:href="#DejaVuSans-13" transform="translate(127.25 0)"/>
      </g>
     </g>
    </g>
    <g id="xtick_7">
     <g id="line2d_13">
      <path d="M 489.398396 300.2 
L 489.398396 7.2 
" clip-path="url(#ped0b00bbf7)" style="fill: none; stroke: #2a2d3a; stroke-opacity: 0.3; stroke-width: 0.5; stroke-linecap: square"/>
     </g>
     <g id="line2d_14">
      <g>
       <use xlink:href="#m49bf393315" x="489.398396" y="300.2" style="fill: #6b7085; stroke: #6b7085; stroke-width: 0.8"/>
      </g>
     </g>
     <g id="text_7">
      <!-- 120 -->
      <g style="fill: #6b7085" transform="translate(480.809021 314.037891) scale(0.09 -0.09)">
       <use xlink:href="#DejaVuSans-14"/>
       <use xlink:href="#DejaVuSans-15" transform="translate(63.625 0)"/>
       <use xlink:href="#DejaVuSans-13" transform="translate(127.25 0)"/>
      </g>
     </g>
    </g>
    <g id="text_8">
     <!-- Carbohydrate intake (g/h) -->
     <g style="fill: #c8cad0" transform="translate(217.833588 334.558281) scale(0.11 -0.11)">
      <defs>
       <path id="DejaVuSans-26" d="M 4122 4306 
L 4122 3641 
Q 3803 3938 3442 4084 
Q 3081 4231 2675 4231 
Q 1875 4231 1450 3742 
Q 1025 3253 1025 2328 
Q 1025 1406 1450 917 
Q 1875 428 2675 428 
Q 3081 428 3442 575 
Q 3803 722 4122 1019 
L 4122 359 
Q 3791 134 3420 21 
Q 3050 -91 2638 -91 
Q 1578 -91 968 557 
Q 359 1206 359 2328 
Q 359 3453 968 4101 
Q 1578 4750 2638 4750 
Q 3056 4750 3426 4639 
Q 3797 4528 4122 4306 
z
" transform="scale(0.015625)"/>
       <path id="DejaVuSans-44" d="M 2194 1759 
Q 1497 1759 1228 1600 
Q 959 1441 959 1056 
Q 959 750 1161 570 
Q 1363 391 1709 391 
Q 2188 391 2477 730 
Q 2766 1069 2766 1631 
L 2766 1759 
L 2194 1759 
z
M 3341 1997 
L 3341 0 
L 2766 0 
L 2766 531 
Q 2569 213 2275 61 
Q 1981 -91 1556 -91 
Q 1019 -91 701 211 
Q 384 513 384 1019 
Q 384 1609 779 1909 
Q 1175 2209 1959 2209 
L 2766 2209 
L 2766 2266 
Q 2766 2663 2505 2880 
Q 2244 3097 1772 3097 
Q 1472 3097 1187 3025 
Q 903 2953 641 2809 
L 641 3341 
Q 956 3463 1253 3523 
Q 1550 3584 1831 3584 
Q 2591 3584 2966 3190 
Q 3341 2797 3341 1997 
z
" transform="scale(0.015625)"/>
       <path id="DejaVuSans-55" d="M 2631 2963 
Q 2534 3019 2420 3045 
Q 2306 3072 2169 3072 
Q 1681 3072 1420 2755 
Q 1159 2438 1159 1844 
L 1159 0 
L 581 0 
L 581 3500 
L 1159 3500 
L 1159 2956 
Q 1341 3275 1631 3429 
Q 1922 3584 2338 3584 
Q 2397 3584 2469 3576 
Q 2541 3569 2628 3553 
L 2631 2963 
z
" transform="scale(0.015625)"/>
       <path id="DejaVuSans-45" d="M 3116 1747 
Q 3116 2381 2855 2742 
Q 2594 3103 2138 3103 
Q 1681 3103 1420 2742 
Q 1159 2381 1159 1747 
Q 1159 1113 1420 752 
Q 1681 391 2138 391 
Q 2594 391 2855 752 
Q 3116 1113 3116 1747 
z
M 1159 2969 
Q 1341 3281 1617 3432 
Q 1894 3584 2278 3584 
Q 2916 3584 3314 3078 
Q 3713 2572 3713 1747 
Q 3713 922 3314 415 
Q 2916 -91 2278 -91 
Q 1894 -91 1617 61 
Q 1341 213 1159 525 
L 1159 0 
L 581 0 
L 581 4863 
L 1159 4863 
L 1159 2969 
z
" transform="scale(0.015625)"/>
       <path id="DejaVuSans-52" d="M 1959 3097 
Q 1497 3097 1228 2736 
Q 959 2375 959 1747 
Q 959 1119 1226 758 
Q 1494 397 1959 397 
Q 2419 397 2687 759 
Q 2956 1122 2956 1747 
Q 2956 2369 2687 2733 
Q 2419 3097 1959 3097 
z
M 1959 3584 
Q 2709 3584 3137 3096 
Q 3566 2609 3566 1747 
Q 3566 888 3137 398 
Q 2709 -91 1959 -91 
Q 1206 -91 779 398 
Q 353 888 353 1747 
Q 353 2609 779 3096 
Q 1206 3584 1959 3584 
z
" transform="scale(0.015625)"/>
       <path id="DejaVuSans-4b" d="M 3513 2113 
L 3513 0 
L 2938 0 
L 2938 2094 
Q 2938 2591 2744 2837 
Q 2550 3084 2163 3084 
Q 1697 3084 1428 2787 
Q 1159 2491 1159 1978 
L 1159 0 
L 581 0 
L 581 4863 
L 1159 4863 
L 1159 2956 
Q 1366 3272 1645 3428 
Q 1925 3584 2291 3584 
Q 2894 3584 3203 3211 
Q 3513 2838 3513 2113 
z
" transform="scale(0.015625)"/>
       <path id="DejaVuSans-5c" d="M 2059 -325 
Q 1816 -950 1584 -1140 
Q 1353 -1331 966 -1331 
L 506 -1331 
L 506 -850 
L 844 -850 
Q 1081 -850 1212 -737 
Q 1344 -625 1503 -206 
L 1606 56 
L 191 3500 
L 800 3500 
L 1894 763 
L 2988 3500 
L 3597 3500 
L 2059 -325 
z
" transform="scale(0.015625)"/>
       <path id="DejaVuSans-47" d="M 2906 2969 
L 2906 4863 
L 3481 4863 
L 3481 0 
L 2906 0 
L 2906 525 
Q 2725 213 2448 61 
Q 2172 -91 1784 -91 
Q 1150 -91 751 415 
Q 353 922 353 1747 
Q 353 2572 751 3078 
Q 1150 3584 1784 3584 
Q 2172 3584 2448 3432 
Q 2725 3281 2906 2969 
z
M 947 1747 
Q 947 1113 1208 752 
Q 1469 391 1925 391 
Q 2381 391 2643 752 
Q 2906 1113 2906 1747 
Q 2906 2381 2643 2742 
Q 2381 3103 1925 3103 
Q 1469 3103 1208 2742 
Q 947 2381 947 1747 
z
" transform="scale(0.015625)"/>
       <path id="DejaVuSans-57" d="M 1172 4494 
L 1172 3500 
L 2356 3500 
L 2356 3053 
L 1172 3053 
L 1172 1153 
Q 1172 725 1289 603 
Q 1406 481 1766 481 
L 2356 481 
L 2356 0 
L 1766 0 
Q 1100 0 847 248 
Q 594 497 594 1153 
L 594 3053 
L 172 3053 
L 172 3500 
L 594 3500 
L 594 4494 
L 1172 4494 
z
" transform="scale(0.015625)"/>
       <path id="DejaVuSans-48" d="M 3597 1894 
L 3597 1613 
L 953 1613 
Q 991 1019 1311 708 
Q 1631 397 2203 397 
Q 2534 397 2845 478 
Q 3156 559 3463 722 
L 3463 178 
Q 3153 47 2828 -22 
Q 2503 -91 2169 -91 
Q 1331 -91 842 396 
Q 353 884 353 1716 
Q 353 2575 817 3079 
Q 1281 3584 2069 3584 
Q 2775 3584 3186 3129 
Q 3597 2675 3597 1894 
z
M 3022 2063 
Q 3016 2534 2758 2815 
Q 2500 3097 2075 3097 
Q 1594 3097 1305 2825 
Q 1016 2553 972 2059 
L 3022 2063 
z
" transform="scale(0.015625)"/>
       <path id="DejaVuSans-3" transform="scale(0.015625)"/>
       <path id="DejaVuSans-4c" d="M 603 3500 
L 1178 3500 
L 1178 0 
L 603 0 
L 603 3500 
z
M 603 4863 
L 1178 4863 
L 1178 4134 
L 603 4134 
L 603 4863 
z
" transform="scale(0.015625)"/>
       <path id="DejaVuSans-51" d="M 3513 2113 
L 3513 0 
L 2938 0 
L 2938 2094 
Q 2938 2591 2744 2837 
Q 2550 3084 2163 3084 
Q 1697 3084 1428 2787 
Q 1159 2491 1159 1978 
L 1159 0 
L 581 0 
L 581 3500 
L 1159 3500 
L 1159 2956 
Q 1366 3272 1645 3428 
Q 1925 3584 2291 3584 
Q 2894 3584 3203 3211 
Q 3513 2838 3513 2113 
z
" transform="scale(0.015625)"/>
       <path id="DejaVuSans-4e" d="M 581 4863 
L 1159 4863 
L 1159 1991 
L 2875 3500 
L 3609 3500 
L 1753 1863 
L 3688 0 
L 2938 0 
L 1159 1709 
L 1159 0 
L 581 0 
L 581 4863 
z
" transform="scale(0.015625)"/>
       <path id="DejaVuSans-b" d="M 1984 4856 
Q 1566 4138 1362 3434 
Q 1159 2731 1159 2009 
Q 1159 1288 1364 580 
Q 1569 -128 1984 -844 
L 1484 -844 
Q 1016 -109 783 600 
Q 550 1309 550 2009 
Q 550 2706 781 3412 
Q 1013 4119 1484 4856 
L 1984 4856 
z
" transform="scale(0.015625)"/>
       <path id="DejaVuSans-4a" d="M 2906 1791 
Q 2906 2416 2648 2759 
Q 2391 3103 1925 3103 
Q 1463 3103 1205 2759 
Q 947 2416 947 1791 
Q 947 1169 1205 825 
Q 1463 481 1925 481 
Q 2391 481 2648 825 
Q 2906 1169 2906 1791 
z
M 3481 434 
Q 3481 -459 3084 -895 
Q 2688 -1331 1869 -1331 
Q 1566 -1331 1297 -1286 
Q 1028 -1241 775 -1147 
L 775 -588 
Q 1028 -725 1275 -790 
Q 1522 -856 1778 -856 
Q 2344 -856 2625 -561 
Q 2906 -266 2906 331 
L 2906 616 
Q 2728 306 2450 153 
Q 2172 0 1784 0 
Q 1141 0 747 490 
Q 353 981 353 1791 
Q 353 2603 747 3093 
Q 1141 3584 1784 3584 
Q 2172 3584 2450 3431 
Q 2728 3278 2906 2969 
L 2906 3500 
L 3481 3500 
L 3481 434 
z
" transform="scale(0.015625)"/>
       <path id="DejaVuSans-12" d="M 1625 4666 
L 2156 4666 
L 531 -594 
L 0 -594 
L 1625 4666 
z
" transform="scale(0.015625)"/>
       <path id="DejaVuSans-c" d="M 513 4856 
L 1013 4856 
Q 1481 4119 1714 3412 
Q 1947 2706 1947 2009 
Q 1947 1309 1714 600 
Q 1481 -109 1013 -844 
L 513 -844 
Q 928 -128 1133 580 
Q 1338 1288 1338 2009 
Q 1338 2731 1133 3434 
Q 928 4138 513 4856 
z
" transform="scale(0.015625)"/>
      </defs>
      <use xlink:href="#DejaVuSans-26"/>
      <use xlink:href="#DejaVuSans-44" transform="translate(69.828125 0)"/>
      <use xlink:href="#DejaVuSans-55" transform="translate(131.109375 0)"/>
      <use xlink:href="#DejaVuSans-45" transform="translate(172.21875 0)"/>
      <use xlink:href="#DejaVuSans-52" transform="translate(235.703125 0)"/>
      <use xlink:href="#DejaVuSans-4b" transform="translate(296.890625 0)"/>
      <use xlink:href="#DejaVuSans-5c" transform="translate(360.265625 0)"/>
      <use xlink:href="#DejaVuSans-47" transform="translate(419.453125 0)"/>
      <use xlink:href="#DejaVuSans-55" transform="translate(482.9375 0)"/>
      <use xlink:href="#DejaVuSans-44" transform="translate(524.046875 0)"/>
      <use xlink:href="#DejaVuSans-57" transform="translate(585.328125 0)"/>
      <use xlink:href="#DejaVuSans-48" transform="translate(624.53125 0)"/>
      <use xlink:href="#DejaVuSans-3" transform="translate(686.0625 0)"/>
      <use xlink:href="#DejaVuSans-4c" transform="translate(717.84375 0)"/>
      <use xlink:href="#DejaVuSans-51" transform="translate(745.625 0)"/>
      <use xlink:href="#DejaVuSans-57" transform="translate(809 0)"/>
      <use xlink:href="#DejaVuSans-44" transform="translate(848.203125 0)"/>
      <use xlink:href="#DejaVuSans-4e" transform="translate(909.484375 0)"/>
      <use xlink:href="#DejaVuSans-48" transform="translate(963.828125 0)"/>
      <use xlink:href="#DejaVuSans-3" transform="translate(1025.359375 0)"/>
      <use xlink:href="#DejaVuSans-b" transform="translate(1057.140625 0)"/>
      <use xlink:href="#DejaVuSans-4a" transform="translate(1096.15625 0)"/>
      <use xlink:href="#DejaVuSans-12" transform="translate(1159.640625 0)"/>
      <use xlink:href="#DejaVuSans-4b" transform="translate(1193.328125 0)"/>
      <use xlink:href="#DejaVuSans-c" transform="translate(1256.703125 0)"/>
     </g>
    </g>
   </g>
   <g id="matplotlib.axis_2">
    <g id="ytick_1">
     <g id="line2d_15">
      <path d="M 52.379609 300.2 
L 525.816629 300.2 
" clip-path="url(#ped0b00bbf7)" style="fill: none; stroke: #2a2d3a; stroke-opacity: 0.3; stroke-width: 0.5; stroke-linecap: square"/>
     </g>
     <g id="line2d_16">
      <defs>
       <path id="m663e6cb121" d="M 0 0 
L -3.5 0 
" style="stroke: #6b7085; stroke-width: 0.8"/>
      </defs>
      <g>
       <use xlink:href="#m663e6cb121" x="52.379609" y="300.2" style="fill: #6b7085; stroke: #6b7085; stroke-width: 0.8"/>
      </g>
     </g>
     <g id="text_9">
      <!-- 0 -->
      <g style="fill: #6b7085" transform="translate(39.653359 303.618945) scale(0.09 -0.09)">
       <use xlink:href="#DejaVuSans-13"/>
      </g>
     </g>
    </g>
    <g id="ytick_2">
     <g id="line2d_17">
      <path d="M 52.379609 246.927273 
L 525.816629 246.927273 
" clip-path="url(#ped0b00bbf7)" style="fill: none; stroke: #2a2d3a; stroke-opacity: 0.3; stroke-width: 0.5; stroke-linecap: square"/>
     </g>
     <g id="line2d_18">
      <g>
       <use xlink:href="#m663e6cb121" x="52.379609" y="246.927273" style="fill: #6b7085; stroke: #6b7085; stroke-width: 0.8"/>
      </g>
     </g>
     <g id="text_10">
      <!-- 20 -->
      <g style="fill: #6b7085" transform="translate(33.927109 250.346218) scale(0.09 -0.09)">
       <use xlink:href="#DejaVuSans-15"/>
       <use xlink:href="#DejaVuSans-13" transform="translate(63.625 0)"/>
      </g>
     </g>
    </g>
    <g id="ytick_3">
     <g id="line2d_19">
      <path d="M 52.379609 193.654545 
L 525.816629 193.654545 
" clip-path="url(#ped0b00bbf7)" style="fill: none; stroke: #2a2d3a; stroke-opacity: 0.3; stroke-width: 0.5; stroke-linecap: square"/>
     </g>
     <g id="line2d_20">
      <g>
       <use xlink:href="#m663e6cb121" x="52.379609" y="193.654545" style="fill: #6b7085; stroke: #6b7085; stroke-width: 0.8"/>
      </g>
     </g>
     <g id="text_11">
      <!-- 40 -->
      <g style="fill: #6b7085" transform="translate(33.927109 197.073491) scale(0.09 -0.09)">
       <use xlink:href="#DejaVuSans-17"/>
       <use xlink:href="#DejaVuSans-13" transform="translate(63.625 0)"/>
      </g>
     </g>
    </g>
    <g id="ytick_4">
     <g id="line2d_21">
      <path d="M 52.379609 140.381818 
L 525.816629 140.381818 
" clip-path="url(#ped0b00bbf7)" style="fill: none; stroke: #2a2d3a; stroke-opacity: 0.3; stroke-width: 0.5; stroke-linecap: square"/>
     </g>
     <g id="line2d_22">
      <g>
       <use xlink:href="#m663e6cb121" x="52.379609" y="140.381818" style="fill: #6b7085; stroke: #6b7085; stroke-width: 0.8"/>
      </g>
     </g>
     <g id="text_12">
      <!-- 60 -->
      <g style="fill: #6b7085" transform="translate(33.927109 143.800763) scale(0.09 -0.09)">
       <use xlink:href="#DejaVuSans-19"/>
       <use xlink:href="#DejaVuSans-13" transform="translate(63.625 0)"/>
      </g>
     </g>
    </g>
    <g id="ytick_5">
     <g id="line2d_23">
      <path d="M 52.379609 87.109091 
L 525.816629 87.109091 
" clip-path="url(#ped0b00bbf7)" style="fill: none; stroke: #2a2d3a; stroke-opacity: 0.3; stroke-width: 0.5; stroke-linecap: square"/>
     </g>
     <g id="line2d_24">
      <g>
       <use xlink:href="#m663e6cb121" x="52.379609" y="87.109091" style="fill: #6b7085; stroke: #6b7085; stroke-width: 0.8"/>
      </g>
     </g>
     <g id="text_13">
      <!-- 80 -->
      <g style="fill: #6b7085" transform="translate(33.927109 90.528036) scale(0.09 -0.09)">
       <use xlink:href="#DejaVuSans-1b"/>
       <use xlink:href="#DejaVuSans-13" transform="translate(63.625 0)"/>
      </g>
     </g>
    </g>
    <g id="ytick_6">
     <g id="line2d_25">
      <path d="M 52.379609 33.836364 
L 525.816629 33.836364 
" clip-path="url(#ped0b00bbf7)" style="fill: none; stroke: #2a2d3a; stroke-opacity: 0.3; stroke-width: 0.5; stroke-linecap: square"/>
     </g>
     <g id="line2d_26">
      <g>
       <use xlink:href="#m663e6cb121" x="52.379609" y="33.836364" style="fill: #6b7085; stroke: #6b7085; stroke-width: 0.8"/>
      </g>
     </g>
     <g id="text_14">
      <!-- 100 -->
      <g style="fill: #6b7085" transform="translate(28.200859 37.255309) scale(0.09 -0.09)">
       <use xlink:href="#DejaVuSans-14"/>
       <use xlink:href="#DejaVuSans-13" transform="translate(63.625 0)"/>
       <use xlink:href="#DejaVuSans-13" transform="translate(127.25 0)"/>
      </g>
     </g>
    </g>
    <g id="text_15">
     <!-- Exogenous oxidation rate (g/h) -->
     <g style="fill: #c8cad0" transform="translate(15.558281 238.618281) rotate(-90) scale(0.11 -0.11)">
      <defs>
       <path id="DejaVuSans-28" d="M 628 4666 
L 3578 4666 
L 3578 4134 
L 1259 4134 
L 1259 2753 
L 3481 2753 
L 3481 2222 
L 1259 2222 
L 1259 531 
L 3634 531 
L 3634 0 
L 628 0 
L 628 4666 
z
" transform="scale(0.015625)"/>
       <path id="DejaVuSans-5b" d="M 3513 3500 
L 2247 1797 
L 3578 0 
L 2900 0 
L 1881 1375 
L 863 0 
L 184 0 
L 1544 1831 
L 300 3500 
L 978 3500 
L 1906 2253 
L 2834 3500 
L 3513 3500 
z
" transform="scale(0.015625)"/>
       <path id="DejaVuSans-58" d="M 544 1381 
L 544 3500 
L 1119 3500 
L 1119 1403 
Q 1119 906 1312 657 
Q 1506 409 1894 409 
Q 2359 409 2629 706 
Q 2900 1003 2900 1516 
L 2900 3500 
L 3475 3500 
L 3475 0 
L 2900 0 
L 2900 538 
Q 2691 219 2414 64 
Q 2138 -91 1772 -91 
Q 1169 -91 856 284 
Q 544 659 544 1381 
z
M 1991 3584 
L 1991 3584 
z
" transform="scale(0.015625)"/>
       <path id="DejaVuSans-56" d="M 2834 3397 
L 2834 2853 
Q 2591 2978 2328 3040 
Q 2066 3103 1784 3103 
Q 1356 3103 1142 2972 
Q 928 2841 928 2578 
Q 928 2378 1081 2264 
Q 1234 2150 1697 2047 
L 1894 2003 
Q 2506 1872 2764 1633 
Q 3022 1394 3022 966 
Q 3022 478 2636 193 
Q 2250 -91 1575 -91 
Q 1294 -91 989 -36 
Q 684 19 347 128 
L 347 722 
Q 666 556 975 473 
Q 1284 391 1588 391 
Q 1994 391 2212 530 
Q 2431 669 2431 922 
Q 2431 1156 2273 1281 
Q 2116 1406 1581 1522 
L 1381 1569 
Q 847 1681 609 1914 
Q 372 2147 372 2553 
Q 372 3047 722 3315 
Q 1072 3584 1716 3584 
Q 2034 3584 2315 3537 
Q 2597 3491 2834 3397 
z
" transform="scale(0.015625)"/>
      </defs>
      <use xlink:href="#DejaVuSans-28"/>
      <use xlink:href="#DejaVuSans-5b" transform="translate(63.1875 0)"/>
      <use xlink:href="#DejaVuSans-52" transform="translate(119.296875 0)"/>
      <use xlink:href="#DejaVuSans-4a" transform="translate(180.484375 0)"/>
      <use xlink:href="#DejaVuSans-48" transform="translate(243.96875 0)"/>
      <use xlink:href="#DejaVuSans-51" transform="translate(305.5 0)"/>
      <use xlink:href="#DejaVuSans-52" transform="translate(368.875 0)"/>
      <use xlink:href="#DejaVuSans-58" transform="translate(430.0625 0)"/>
      <use xlink:href="#DejaVuSans-56" transform="translate(493.4375 0)"/>
      <use xlink:href="#DejaVuSans-3" transform="translate(545.53125 0)"/>
      <use xlink:href="#DejaVuSans-52" transform="translate(577.3125 0)"/>
      <use xlink:href="#DejaVuSans-5b" transform="translate(635.421875 0)"/>
      <use xlink:href="#DejaVuSans-4c" transform="translate(694.609375 0)"/>
      <use xlink:href="#DejaVuSans-47" transform="translate(722.390625 0)"/>
      <use xlink:href="#DejaVuSans-44" transform="translate(785.875 0)"/>
      <use xlink:href="#DejaVuSans-57" transform="translate(847.15625 0)"/>
      <use xlink:href="#DejaVuSans-4c" transform="translate(886.359375 0)"/>
      <use xlink:href="#DejaVuSans-52" transform="translate(914.140625 0)"/>
      <use xlink:href="#DejaVuSans-51" transform="translate(975.328125 0)"/>
      <use xlink:href="#DejaVuSans-3" transform="translate(1038.703125 0)"/>
      <use xlink:href="#DejaVuSans-55" transform="translate(1070.484375 0)"/>
      <use xlink:href="#DejaVuSans-44" transform="translate(1111.59375 0)"/>
      <use xlink:href="#DejaVuSans-57" transform="translate(1172.875 0)"/>
      <use xlink:href="#DejaVuSans-48" transform="translate(1212.078125 0)"/>
      <use xlink:href="#DejaVuSans-3" transform="translate(1273.609375 0)"/>
      <use xlink:href="#DejaVuSans-b" transform="translate(1305.390625 0)"/>
      <use xlink:href="#DejaVuSans-4a" transform="translate(1344.40625 0)"/>
      <use xlink:href="#DejaVuSans-12" transform="translate(1407.890625 0)"/>
      <use xlink:href="#DejaVuSans-4b" transform="translate(1441.578125 0)"/>
      <use xlink:href="#DejaVuSans-c" transform="translate(1504.953125 0)"/>
     </g>
    </g>
   </g>
   <g id="line2d_27">
    <path d="M 52.379609 300.2 
L 125.216074 252.254545 
L 198.052538 198.981818 
L 270.889003 153.7 
L 343.725467 145.709091 
L 416.561932 140.381818 
L 489.398396 140.381818 
" clip-path="url(#ped0b00bbf7)" style="fill: none; stroke: #38bdf8; stroke-width: 2.5; stroke-linecap: square"/>
    <defs>
     <path id="m3d37633535" d="M 0 2.5 
C 0.663008 2.5 1.29895 2.236584 1.767767 1.767767 
C 2.236584 1.29895 2.5 0.663008 2.5 0 
C 2.5 -0.663008 2.236584 -1.29895 1.767767 -1.767767 
C 1.29895 -2.236584 0.663008 -2.5 0 -2.5 
C -0.663008 -2.5 -1.29895 -2.236584 -1.767767 -1.767767 
C -2.236584 -1.29895 -2.5 -0.663008 -2.5 0 
C -2.5 0.663008 -2.236584 1.29895 -1.767767 1.767767 
C -1.29895 2.236584 -0.663008 2.5 0 2.5 
z
" style="stroke: #38bdf8"/>
    </defs>
    <g clip-path="url(#ped0b00bbf7)">
     <use xlink:href="#m3d37633535" x="52.379609" y="300.2" style="fill: #38bdf8; stroke: #38bdf8"/>
     <use xlink:href="#m3d37633535" x="125.216074" y="252.254545" style="fill: #38bdf8; stroke: #38bdf8"/>
     <use xlink:href="#m3d37633535" x="198.052538" y="198.981818" style="fill: #38bdf8; stroke: #38bdf8"/>
     <use xlink:href="#m3d37633535" x="270.889003" y="153.7" style="fill: #38bdf8; stroke: #38bdf8"/>
     <use xlink:href="#m3d37633535" x="343.725467" y="145.709091" style="fill: #38bdf8; stroke: #38bdf8"/>
     <use xlink:href="#m3d37633535" x="416.561932" y="140.381818" style="fill: #38bdf8; stroke: #38bdf8"/>
     <use xlink:href="#m3d37633535" x="489.398396" y="140.381818" style="fill: #38bdf8; stroke: #38bdf8"/>
    </g>
   </g>
   <g id="line2d_28">
    <path d="M 52.379609 300.2 
L 125.216074 252.254545 
L 198.052538 193.654545 
L 270.889003 135.054545 
L 343.725467 87.109091 
L 416.561932 60.472727 
L 489.398396 44.490909 
" clip-path="url(#ped0b00bbf7)" style="fill: none; stroke: #a78bfa; stroke-width: 2.5; stroke-linecap: square"/>
    <defs>
     <path id="md59a84031b" d="M -2.5 2.5 
L 2.5 2.5 
L 2.5 -2.5 
L -2.5 -2.5 
z
" style="stroke: #a78bfa; stroke-linejoin: miter"/>
    </defs>
    <g clip-path="url(#ped0b00bbf7)">
     <use xlink:href="#md59a84031b" x="52.379609" y="300.2" style="fill: #a78bfa; stroke: #a78bfa; stroke-linejoin: miter"/>
     <use xlink:href="#md59a84031b" x="125.216074" y="252.254545" style="fill: #a78bfa; stroke: #a78bfa; stroke-linejoin: miter"/>
     <use xlink:href="#md59a84031b" x="198.052538" y="193.654545" style="fill: #a78bfa; stroke: #a78bfa; stroke-linejoin: miter"/>
     <use xlink:href="#md59a84031b" x="270.889003" y="135.054545" style="fill: #a78bfa; stroke: #a78bfa; stroke-linejoin: miter"/>
     <use xlink:href="#md59a84031b" x="343.725467" y="87.109091" style="fill: #a78bfa; stroke: #a78bfa; stroke-linejoin: miter"/>
     <use xlink:href="#md59a84031b" x="416.561932" y="60.472727" style="fill: #a78bfa; stroke: #a78bfa; stroke-linejoin: miter"/>
     <use xlink:href="#md59a84031b" x="489.398396" y="44.490909" style="fill: #a78bfa; stroke: #a78bfa; stroke-linejoin: miter"/>
    </g>
   </g>
   <g id="line2d_29">
    <path d="M 52.379609 140.381818 
L 525.816629 140.381818 
" clip-path="url(#ped0b00bbf7)" style="fill: none; stroke-dasharray: 5.55,2.4; stroke-dashoffset: 0; stroke: #f59e0b; stroke-opacity: 0.7; stroke-width: 1.5"/>
   </g>
   <g id="patch_3">
    <path d="M 52.379609 300.2 
L 52.379609 7.2 
" style="fill: none; stroke: #2a2d3a; stroke-width: 0.5; stroke-linejoin: miter; stroke-linecap: square"/>
   </g>
   <g id="patch_4">
    <path d="M 525.816629 300.2 
L 525.816629 7.2 
" style="fill: none; stroke: #2a2d3a; stroke-width: 0.5; stroke-linejoin: miter; stroke-linecap: square"/>
   </g>
   <g id="patch_5">
    <path d="M 52.379609 300.2 
L 525.816629 300.2 
" style="fill: none; stroke: #2a2d3a; stroke-width: 0.5; stroke-linejoin: miter; stroke-linecap: square"/>
   </g>
   <g id="patch_6">
    <path d="M 52.379609 7.2 
L 525.816629 7.2 
" style="fill: none; stroke: #2a2d3a; stroke-width: 0.5; stroke-linejoin: miter; stroke-linecap: square"/>
   </g>
   <g id="text_16">
    <!-- SGLT1 limit -->
    <g style="fill: #f59e0b" transform="translate(496.682043 137.488996) scale(0.085 -0.085)">
     <defs>
      <path id="DejaVuSans-Bold-36" d="M 3834 4519 
L 3834 3531 
Q 3450 3703 3084 3790 
Q 2719 3878 2394 3878 
Q 1963 3878 1756 3759 
Q 1550 3641 1550 3391 
Q 1550 3203 1689 3098 
Q 1828 2994 2194 2919 
L 2706 2816 
Q 3484 2659 3812 2340 
Q 4141 2022 4141 1434 
Q 4141 663 3683 286 
Q 3225 -91 2284 -91 
Q 1841 -91 1394 -6 
Q 947 78 500 244 
L 500 1259 
Q 947 1022 1364 901 
Q 1781 781 2169 781 
Q 2563 781 2772 912 
Q 2981 1044 2981 1288 
Q 2981 1506 2839 1625 
Q 2697 1744 2272 1838 
L 1806 1941 
Q 1106 2091 782 2419 
Q 459 2747 459 3303 
Q 459 4000 909 4375 
Q 1359 4750 2203 4750 
Q 2588 4750 2994 4692 
Q 3400 4634 3834 4519 
z
" transform="scale(0.015625)"/>
      <path id="DejaVuSans-Bold-2a" d="M 4781 347 
Q 4331 128 3847 18 
Q 3363 -91 2847 -91 
Q 1681 -91 1000 561 
Q 319 1213 319 2328 
Q 319 3456 1012 4103 
Q 1706 4750 2913 4750 
Q 3378 4750 3804 4662 
Q 4231 4575 4609 4403 
L 4609 3438 
Q 4219 3659 3833 3768 
Q 3447 3878 3059 3878 
Q 2341 3878 1952 3476 
Q 1563 3075 1563 2328 
Q 1563 1588 1938 1184 
Q 2313 781 3003 781 
Q 3191 781 3352 804 
Q 3513 828 3641 878 
L 3641 1784 
L 2906 1784 
L 2906 2591 
L 4781 2591 
L 4781 347 
z
" transform="scale(0.015625)"/>
      <path id="DejaVuSans-Bold-2f" d="M 588 4666 
L 1791 4666 
L 1791 909 
L 3903 909 
L 3903 0 
L 588 0 
L 588 4666 
z
" transform="scale(0.015625)"/>
      <path id="DejaVuSans-Bold-37" d="M 31 4666 
L 4331 4666 
L 4331 3756 
L 2784 3756 
L 2784 0 
L 1581 0 
L 1581 3756 
L 31 3756 
L 31 4666 
z
" transform="scale(0.015625)"/>
      <path id="DejaVuSans-Bold-14" d="M 750 831 
L 1813 831 
L 1813 3847 
L 722 3622 
L 722 4441 
L 1806 4666 
L 2950 4666 
L 2950 831 
L 4013 831 
L 4013 0 
L 750 0 
L 750 831 
z
" transform="scale(0.015625)"/>
      <path id="DejaVuSans-Bold-3" transform="scale(0.015625)"/>
      <path id="DejaVuSans-Bold-4f" d="M 538 4863 
L 1656 4863 
L 1656 0 
L 538 0 
L 538 4863 
z
" transform="scale(0.015625)"/>
      <path id="DejaVuSans-Bold-4c" d="M 538 3500 
L 1656 3500 
L 1656 0 
L 538 0 
L 538 3500 
z
M 538 4863 
L 1656 4863 
L 1656 3950 
L 538 3950 
L 538 4863 
z
" transform="scale(0.015625)"/>
      <path id="DejaVuSans-Bold-50" d="M 3781 2919 
Q 3994 3244 4286 3414 
Q 4578 3584 4928 3584 
Q 5531 3584 5847 3212 
Q 6163 2841 6163 2131 
L 6163 0 
L 5038 0 
L 5038 1825 
Q 5041 1866 5042 1909 
Q 5044 1953 5044 2034 
Q 5044 2406 4934 2573 
Q 4825 2741 4581 2741 
Q 4263 2741 4089 2478 
Q 3916 2216 3909 1719 
L 3909 0 
L 2784 0 
L 2784 1825 
Q 2784 2406 2684 2573 
Q 2584 2741 2328 2741 
Q 2006 2741 1831 2477 
Q 1656 2213 1656 1722 
L 1656 0 
L 531 0 
L 531 3500 
L 1656 3500 
L 1656 2988 
Q 1863 3284 2130 3434 
Q 2397 3584 2719 3584 
Q 3081 3584 3359 3409 
Q 3638 3234 3781 2919 
z
" transform="scale(0.015625)"/>
      <path id="DejaVuSans-Bold-57" d="M 1759 4494 
L 1759 3500 
L 2913 3500 
L 2913 2700 
L 1759 2700 
L 1759 1216 
Q 1759 972 1856 886 
Q 1953 800 2241 800 
L 2816 800 
L 2816 0 
L 1856 0 
Q 1194 0 917 276 
Q 641 553 641 1216 
L 641 2700 
L 84 2700 
L 84 3500 
L 641 3500 
L 641 4494 
L 1759 4494 
z
" transform="scale(0.015625)"/>
     </defs>
     <use xlink:href="#DejaVuSans-Bold-36"/>
     <use xlink:href="#DejaVuSans-Bold-2a" transform="translate(72.015625 0)"/>
     <use xlink:href="#DejaVuSans-Bold-2f" transform="translate(154.09375 0)"/>
     <use xlink:href="#DejaVuSans-Bold-37" transform="translate(201.265625 0)"/>
     <use xlink:href="#DejaVuSans-Bold-14" transform="translate(269.484375 0)"/>
     <use xlink:href="#DejaVuSans-Bold-3" transform="translate(339.0625 0)"/>
     <use xlink:href="#DejaVuSans-Bold-4f" transform="translate(373.875 0)"/>
     <use xlink:href="#DejaVuSans-Bold-4c" transform="translate(408.15625 0)"/>
     <use xlink:href="#DejaVuSans-Bold-50" transform="translate(442.4375 0)"/>
     <use xlink:href="#DejaVuSans-Bold-4c" transform="translate(546.640625 0)"/>
     <use xlink:href="#DejaVuSans-Bold-57" transform="translate(580.921875 0)"/>
    </g>
    <!-- (~60 g/h) -->
    <g style="fill: #f59e0b" transform="translate(496.682043 147.69132) scale(0.085 -0.085)">
     <defs>
      <path id="DejaVuSans-Bold-b" d="M 2413 -844 
L 1484 -844 
Q 1006 -72 778 623 
Q 550 1319 550 2003 
Q 550 2688 779 3389 
Q 1009 4091 1484 4856 
L 2413 4856 
Q 2013 4116 1813 3408 
Q 1613 2700 1613 2009 
Q 1613 1319 1811 609 
Q 2009 -100 2413 -844 
z
" transform="scale(0.015625)"/>
      <path id="DejaVuSans-Bold-61" d="M 4684 2656 
L 4684 1894 
Q 4353 1644 4073 1536 
Q 3794 1428 3494 1428 
Q 3159 1428 2713 1609 
Q 2669 1628 2644 1638 
Q 2622 1647 2575 1666 
Q 2091 1856 1797 1856 
Q 1522 1856 1253 1736 
Q 984 1616 678 1356 
L 678 2119 
Q 1013 2369 1291 2476 
Q 1569 2584 1869 2584 
Q 2203 2584 2650 2403 
Q 2697 2384 2719 2375 
Q 2741 2366 2788 2347 
Q 3272 2156 3566 2156 
Q 3834 2156 4098 2273 
Q 4363 2391 4684 2656 
z
" transform="scale(0.015625)"/>
      <path id="DejaVuSans-Bold-19" d="M 2316 2303 
Q 2000 2303 1842 2098 
Q 1684 1894 1684 1484 
Q 1684 1075 1842 870 
Q 2000 666 2316 666 
Q 2634 666 2792 870 
Q 2950 1075 2950 1484 
Q 2950 1894 2792 2098 
Q 2634 2303 2316 2303 
z
M 3803 4544 
L 3803 3681 
Q 3506 3822 3243 3889 
Q 2981 3956 2731 3956 
Q 2194 3956 1894 3657 
Q 1594 3359 1544 2772 
Q 1750 2925 1990 3001 
Q 2231 3078 2516 3078 
Q 3231 3078 3670 2659 
Q 4109 2241 4109 1563 
Q 4109 813 3618 361 
Q 3128 -91 2303 -91 
Q 1394 -91 895 523 
Q 397 1138 397 2266 
Q 397 3422 980 4083 
Q 1563 4744 2578 4744 
Q 2900 4744 3203 4694 
Q 3506 4644 3803 4544 
z
" transform="scale(0.015625)"/>
      <path id="DejaVuSans-Bold-13" d="M 2944 2338 
Q 2944 3213 2780 3570 
Q 2616 3928 2228 3928 
Q 1841 3928 1675 3570 
Q 1509 3213 1509 2338 
Q 1509 1453 1675 1090 
Q 1841 728 2228 728 
Q 2613 728 2778 1090 
Q 2944 1453 2944 2338 
z
M 4147 2328 
Q 4147 1169 3647 539 
Q 3147 -91 2228 -91 
Q 1306 -91 806 539 
Q 306 1169 306 2328 
Q 306 3491 806 4120 
Q 1306 4750 2228 4750 
Q 3147 4750 3647 4120 
Q 4147 3491 4147 2328 
z
" transform="scale(0.015625)"/>
      <path id="DejaVuSans-Bold-4a" d="M 2919 594 
Q 2688 288 2409 144 
Q 2131 0 1766 0 
Q 1125 0 706 504 
Q 288 1009 288 1791 
Q 288 2575 706 3076 
Q 1125 3578 1766 3578 
Q 2131 3578 2409 3434 
Q 2688 3291 2919 2981 
L 2919 3500 
L 4044 3500 
L 4044 353 
Q 4044 -491 3511 -936 
Q 2978 -1381 1966 -1381 
Q 1638 -1381 1331 -1331 
Q 1025 -1281 716 -1178 
L 716 -306 
Q 1009 -475 1290 -558 
Q 1572 -641 1856 -641 
Q 2406 -641 2662 -400 
Q 2919 -159 2919 353 
L 2919 594 
z
M 2181 2772 
Q 1834 2772 1640 2515 
Q 1447 2259 1447 1791 
Q 1447 1309 1634 1061 
Q 1822 813 2181 813 
Q 2531 813 2725 1069 
Q 2919 1325 2919 1791 
Q 2919 2259 2725 2515 
Q 2531 2772 2181 2772 
z
" transform="scale(0.015625)"/>
      <path id="DejaVuSans-Bold-12" d="M 1644 4666 
L 2338 4666 
L 691 -594 
L 0 -594 
L 1644 4666 
z
" transform="scale(0.015625)"/>
      <path id="DejaVuSans-Bold-4b" d="M 4056 2131 
L 4056 0 
L 2931 0 
L 2931 347 
L 2931 1625 
Q 2931 2084 2911 2256 
Q 2891 2428 2841 2509 
Q 2775 2619 2662 2680 
Q 2550 2741 2406 2741 
Q 2056 2741 1856 2470 
Q 1656 2200 1656 1722 
L 1656 0 
L 538 0 
L 538 4863 
L 1656 4863 
L 1656 2988 
Q 1909 3294 2193 3439 
Q 2478 3584 2822 3584 
Q 3428 3584 3742 3212 
Q 4056 2841 4056 2131 
z
" transform="scale(0.015625)"/>
      <path id="DejaVuSans-Bold-c" d="M 513 -844 
Q 913 -100 1113 609 
Q 1313 1319 1313 2009 
Q 1313 2700 1113 3408 
Q 913 4116 513 4856 
L 1441 4856 
Q 1916 4091 2145 3389 
Q 2375 2688 2375 2003 
Q 2375 1319 2147 623 
Q 1919 -72 1441 -844 
L 513 -844 
z
" transform="scale(0.015625)"/>
     </defs>
     <use xlink:href="#DejaVuSans-Bold-b"/>
     <use xlink:href="#DejaVuSans-Bold-61" transform="translate(45.703125 0)"/>
     <use xlink:href="#DejaVuSans-Bold-19" transform="translate(129.5 0)"/>
     <use xlink:href="#DejaVuSans-Bold-13" transform="translate(199.078125 0)"/>
     <use xlink:href="#DejaVuSans-Bold-3" transform="translate(268.65625 0)"/>
     <use xlink:href="#DejaVuSans-Bold-4a" transform="translate(303.46875 0)"/>
     <use xlink:href="#DejaVuSans-Bold-12" transform="translate(375.046875 0)"/>
     <use xlink:href="#DejaVuSans-Bold-4b" transform="translate(411.578125 0)"/>
     <use xlink:href="#DejaVuSans-Bold-c" transform="translate(482.765625 0)"/>
    </g>
   </g>
   <g id="patch_7">
    <path d="M 428.536308 88.595626 
Q 422.941591 75.455929 418.003865 63.859237 
" style="fill: none; stroke: #a78bfa; stroke-width: 1.5; stroke-linecap: round"/>
    <path d="M 417.758054 67.876646 
L 418.003865 63.859237 
L 421.070306 66.466331 
" style="fill: none; stroke: #a78bfa; stroke-width: 1.5; stroke-linecap: round"/>
   </g>
   <g id="text_17">
    <!-- +75% -->
    <g style="fill: #a78bfa" transform="translate(420.229017 100.175133) scale(0.09 -0.09)">
     <defs>
      <path id="DejaVuSans-Bold-e" d="M 3053 4013 
L 3053 2375 
L 4684 2375 
L 4684 1638 
L 3053 1638 
L 3053 0 
L 2309 0 
L 2309 1638 
L 678 1638 
L 678 2375 
L 2309 2375 
L 2309 4013 
L 3053 4013 
z
" transform="scale(0.015625)"/>
      <path id="DejaVuSans-Bold-1a" d="M 428 4666 
L 3944 4666 
L 3944 3988 
L 2125 0 
L 953 0 
L 2675 3781 
L 428 3781 
L 428 4666 
z
" transform="scale(0.015625)"/>
      <path id="DejaVuSans-Bold-18" d="M 678 4666 
L 3669 4666 
L 3669 3781 
L 1638 3781 
L 1638 3059 
Q 1775 3097 1914 3117 
Q 2053 3138 2203 3138 
Q 3056 3138 3531 2711 
Q 4006 2284 4006 1522 
Q 4006 766 3489 337 
Q 2972 -91 2053 -91 
Q 1656 -91 1267 -14 
Q 878 63 494 219 
L 494 1166 
Q 875 947 1217 837 
Q 1559 728 1863 728 
Q 2300 728 2551 942 
Q 2803 1156 2803 1522 
Q 2803 1891 2551 2103 
Q 2300 2316 1863 2316 
Q 1603 2316 1309 2248 
Q 1016 2181 678 2041 
L 678 4666 
z
" transform="scale(0.015625)"/>
      <path id="DejaVuSans-Bold-8" d="M 4959 1925 
Q 4738 1925 4616 1733 
Q 4494 1541 4494 1184 
Q 4494 825 4614 633 
Q 4734 441 4959 441 
Q 5184 441 5303 633 
Q 5422 825 5422 1184 
Q 5422 1541 5301 1733 
Q 5181 1925 4959 1925 
z
M 4959 2450 
Q 5541 2450 5875 2112 
Q 6209 1775 6209 1184 
Q 6209 594 5875 251 
Q 5541 -91 4959 -91 
Q 4378 -91 4042 251 
Q 3706 594 3706 1184 
Q 3706 1772 4042 2111 
Q 4378 2450 4959 2450 
z
M 2094 -91 
L 1403 -91 
L 4319 4750 
L 5013 4750 
L 2094 -91 
z
M 1453 4750 
Q 2034 4750 2367 4411 
Q 2700 4072 2700 3481 
Q 2700 2891 2367 2550 
Q 2034 2209 1453 2209 
Q 872 2209 539 2550 
Q 206 2891 206 3481 
Q 206 4072 539 4411 
Q 872 4750 1453 4750 
z
M 1453 4225 
Q 1228 4225 1106 4031 
Q 984 3838 984 3481 
Q 984 3122 1106 2926 
Q 1228 2731 1453 2731 
Q 1678 2731 1798 2926 
Q 1919 3122 1919 3481 
Q 1919 3838 1797 4031 
Q 1675 4225 1453 4225 
z
" transform="scale(0.015625)"/>
     </defs>
     <use xlink:href="#DejaVuSans-Bold-e"/>
     <use xlink:href="#DejaVuSans-Bold-1a" transform="translate(83.796875 0)"/>
     <use xlink:href="#DejaVuSans-Bold-18" transform="translate(153.375 0)"/>
     <use xlink:href="#DejaVuSans-Bold-8" transform="translate(222.953125 0)"/>
    </g>
    <!-- oxidation -->
    <g style="fill: #a78bfa" transform="translate(410.987845 110.977594) scale(0.09 -0.09)">
     <defs>
      <path id="DejaVuSans-Bold-52" d="M 2203 2784 
Q 1831 2784 1636 2517 
Q 1441 2250 1441 1747 
Q 1441 1244 1636 976 
Q 1831 709 2203 709 
Q 2569 709 2762 976 
Q 2956 1244 2956 1747 
Q 2956 2250 2762 2517 
Q 2569 2784 2203 2784 
z
M 2203 3584 
Q 3106 3584 3614 3096 
Q 4122 2609 4122 1747 
Q 4122 884 3614 396 
Q 3106 -91 2203 -91 
Q 1297 -91 786 396 
Q 275 884 275 1747 
Q 275 2609 786 3096 
Q 1297 3584 2203 3584 
z
" transform="scale(0.015625)"/>
      <path id="DejaVuSans-Bold-5b" d="M 1422 1791 
L 159 3500 
L 1344 3500 
L 2059 2463 
L 2784 3500 
L 3969 3500 
L 2706 1797 
L 4031 0 
L 2847 0 
L 2059 1106 
L 1281 0 
L 97 0 
L 1422 1791 
z
" transform="scale(0.015625)"/>
      <path id="DejaVuSans-Bold-47" d="M 2919 2988 
L 2919 4863 
L 4044 4863 
L 4044 0 
L 2919 0 
L 2919 506 
Q 2688 197 2409 53 
Q 2131 -91 1766 -91 
Q 1119 -91 703 423 
Q 288 938 288 1747 
Q 288 2556 703 3070 
Q 1119 3584 1766 3584 
Q 2128 3584 2408 3439 
Q 2688 3294 2919 2988 
z
M 2181 722 
Q 2541 722 2730 984 
Q 2919 1247 2919 1747 
Q 2919 2247 2730 2509 
Q 2541 2772 2181 2772 
Q 1825 2772 1636 2509 
Q 1447 2247 1447 1747 
Q 1447 1247 1636 984 
Q 1825 722 2181 722 
z
" transform="scale(0.015625)"/>
      <path id="DejaVuSans-Bold-44" d="M 2106 1575 
Q 1756 1575 1579 1456 
Q 1403 1338 1403 1106 
Q 1403 894 1545 773 
Q 1688 653 1941 653 
Q 2256 653 2472 879 
Q 2688 1106 2688 1447 
L 2688 1575 
L 2106 1575 
z
M 3816 1997 
L 3816 0 
L 2688 0 
L 2688 519 
Q 2463 200 2181 54 
Q 1900 -91 1497 -91 
Q 953 -91 614 226 
Q 275 544 275 1050 
Q 275 1666 698 1953 
Q 1122 2241 2028 2241 
L 2688 2241 
L 2688 2328 
Q 2688 2594 2478 2717 
Q 2269 2841 1825 2841 
Q 1466 2841 1156 2769 
Q 847 2697 581 2553 
L 581 3406 
Q 941 3494 1303 3539 
Q 1666 3584 2028 3584 
Q 2975 3584 3395 3211 
Q 3816 2838 3816 1997 
z
" transform="scale(0.015625)"/>
      <path id="DejaVuSans-Bold-51" d="M 4056 2131 
L 4056 0 
L 2931 0 
L 2931 347 
L 2931 1631 
Q 2931 2084 2911 2256 
Q 2891 2428 2841 2509 
Q 2775 2619 2662 2680 
Q 2550 2741 2406 2741 
Q 2056 2741 1856 2470 
Q 1656 2200 1656 1722 
L 1656 0 
L 538 0 
L 538 3500 
L 1656 3500 
L 1656 2988 
Q 1909 3294 2193 3439 
Q 2478 3584 2822 3584 
Q 3428 3584 3742 3212 
Q 4056 2841 4056 2131 
z
" transform="scale(0.015625)"/>
     </defs>
     <use xlink:href="#DejaVuSans-Bold-52"/>
     <use xlink:href="#DejaVuSans-Bold-5b" transform="translate(68.703125 0)"/>
     <use xlink:href="#DejaVuSans-Bold-4c" transform="translate(133.203125 0)"/>
     <use xlink:href="#DejaVuSans-Bold-47" transform="translate(167.484375 0)"/>
     <use xlink:href="#DejaVuSans-Bold-44" transform="translate(239.0625 0)"/>
     <use xlink:href="#DejaVuSans-Bold-57" transform="translate(306.546875 0)"/>
     <use xlink:href="#DejaVuSans-Bold-4c" transform="translate(354.34375 0)"/>
     <use xlink:href="#DejaVuSans-Bold-52" transform="translate(388.625 0)"/>
     <use xlink:href="#DejaVuSans-Bold-51" transform="translate(457.328125 0)"/>
    </g>
   </g>
   <g id="legend_1">
    <g id="patch_8">
     <path d="M 58.679609 54.902109 
L 254.917578 54.902109 
Q 256.717578 54.902109 256.717578 53.102109 
L 256.717578 13.5 
Q 256.717578 11.7 254.917578 11.7 
L 58.679609 11.7 
Q 56.879609 11.7 56.879609 13.5 
L 56.879609 53.102109 
Q 56.879609 54.902109 58.679609 54.902109 
z
" style="fill: #1a1d27; opacity: 0.8; stroke: #2a2d3a; stroke-linejoin: miter"/>
    </g>
    <g id="patch_9">
     <path d="M 60.479609 22.138594 
L 78.479609 22.138594 
L 78.479609 15.838594 
L 60.479609 15.838594 
z
" style="fill: #a78bfa; fill-opacity: 0.15; stroke: #a78bfa; stroke-opacity: 0.15; stroke-linejoin: miter"/>
    </g>
    <g id="text_18">
     <!-- Fructose contribution (GLUT5) -->
     <g style="fill: #c8cad0" transform="translate(85.679609 22.138594) scale(0.09 -0.09)">
      <defs>
       <path id="DejaVuSans-29" d="M 628 4666 
L 3309 4666 
L 3309 4134 
L 1259 4134 
L 1259 2759 
L 3109 2759 
L 3109 2228 
L 1259 2228 
L 1259 0 
L 628 0 
L 628 4666 
z
" transform="scale(0.015625)"/>
       <path id="DejaVuSans-46" d="M 3122 3366 
L 3122 2828 
Q 2878 2963 2633 3030 
Q 2388 3097 2138 3097 
Q 1578 3097 1268 2742 
Q 959 2388 959 1747 
Q 959 1106 1268 751 
Q 1578 397 2138 397 
Q 2388 397 2633 464 
Q 2878 531 3122 666 
L 3122 134 
Q 2881 22 2623 -34 
Q 2366 -91 2075 -91 
Q 1284 -91 818 406 
Q 353 903 353 1747 
Q 353 2603 823 3093 
Q 1294 3584 2113 3584 
Q 2378 3584 2631 3529 
Q 2884 3475 3122 3366 
z
" transform="scale(0.015625)"/>
       <path id="DejaVuSans-2a" d="M 3809 666 
L 3809 1919 
L 2778 1919 
L 2778 2438 
L 4434 2438 
L 4434 434 
Q 4069 175 3628 42 
Q 3188 -91 2688 -91 
Q 1594 -91 976 548 
Q 359 1188 359 2328 
Q 359 3472 976 4111 
Q 1594 4750 2688 4750 
Q 3144 4750 3555 4637 
Q 3966 4525 4313 4306 
L 4313 3634 
Q 3963 3931 3569 4081 
Q 3175 4231 2741 4231 
Q 1884 4231 1454 3753 
Q 1025 3275 1025 2328 
Q 1025 1384 1454 906 
Q 1884 428 2741 428 
Q 3075 428 3337 486 
Q 3600 544 3809 666 
z
" transform="scale(0.015625)"/>
       <path id="DejaVuSans-2f" d="M 628 4666 
L 1259 4666 
L 1259 531 
L 3531 531 
L 3531 0 
L 628 0 
L 628 4666 
z
" transform="scale(0.015625)"/>
       <path id="DejaVuSans-38" d="M 556 4666 
L 1191 4666 
L 1191 1831 
Q 1191 1081 1462 751 
Q 1734 422 2344 422 
Q 2950 422 3222 751 
Q 3494 1081 3494 1831 
L 3494 4666 
L 4128 4666 
L 4128 1753 
Q 4128 841 3676 375 
Q 3225 -91 2344 -91 
Q 1459 -91 1007 375 
Q 556 841 556 1753 
L 556 4666 
z
" transform="scale(0.015625)"/>
       <path id="DejaVuSans-37" d="M -19 4666 
L 3928 4666 
L 3928 4134 
L 2272 4134 
L 2272 0 
L 1638 0 
L 1638 4134 
L -19 4134 
L -19 4666 
z
" transform="scale(0.015625)"/>
       <path id="DejaVuSans-18" d="M 691 4666 
L 3169 4666 
L 3169 4134 
L 1269 4134 
L 1269 2991 
Q 1406 3038 1543 3061 
Q 1681 3084 1819 3084 
Q 2600 3084 3056 2656 
Q 3513 2228 3513 1497 
Q 3513 744 3044 326 
Q 2575 -91 1722 -91 
Q 1428 -91 1123 -41 
Q 819 9 494 109 
L 494 744 
Q 775 591 1075 516 
Q 1375 441 1709 441 
Q 2250 441 2565 725 
Q 2881 1009 2881 1497 
Q 2881 1984 2565 2268 
Q 2250 2553 1709 2553 
Q 1456 2553 1204 2497 
Q 953 2441 691 2322 
L 691 4666 
z
" transform="scale(0.015625)"/>
      </defs>
      <use xlink:href="#DejaVuSans-29"/>
      <use xlink:href="#DejaVuSans-55" transform="translate(50.234375 0)"/>
      <use xlink:href="#DejaVuSans-58" transform="translate(91.34375 0)"/>
      <use xlink:href="#DejaVuSans-46" transform="translate(154.71875 0)"/>
      <use xlink:href="#DejaVuSans-57" transform="translate(209.703125 0)"/>
      <use xlink:href="#DejaVuSans-52" transform="translate(248.90625 0)"/>
      <use xlink:href="#DejaVuSans-56" transform="translate(310.09375 0)"/>
      <use xlink:href="#DejaVuSans-48" transform="translate(362.1875 0)"/>
      <use xlink:href="#DejaVuSans-3" transform="translate(423.71875 0)"/>
      <use xlink:href="#DejaVuSans-46" transform="translate(455.5 0)"/>
      <use xlink:href="#DejaVuSans-52" transform="translate(510.484375 0)"/>
      <use xlink:href="#DejaVuSans-51" transform="translate(571.671875 0)"/>
      <use xlink:href="#DejaVuSans-57" transform="translate(635.046875 0)"/>
      <use xlink:href="#DejaVuSans-55" transform="translate(674.25 0)"/>
      <use xlink:href="#DejaVuSans-4c" transform="translate(715.359375 0)"/>
      <use xlink:href="#DejaVuSans-45" transform="translate(743.140625 0)"/>
      <use xlink:href="#DejaVuSans-58" transform="translate(806.625 0)"/>
      <use xlink:href="#DejaVuSans-57" transform="translate(870 0)"/>
      <use xlink:href="#DejaVuSans-4c" transform="translate(909.203125 0)"/>
      <use xlink:href="#DejaVuSans-52" transform="translate(936.984375 0)"/>
      <use xlink:href="#DejaVuSans-51" transform="translate(998.171875 0)"/>
      <use xlink:href="#DejaVuSans-3" transform="translate(1061.546875 0)"/>
      <use xlink:href="#DejaVuSans-b" transform="translate(1093.328125 0)"/>
      <use xlink:href="#DejaVuSans-2a" transform="translate(1132.34375 0)"/>
      <use xlink:href="#DejaVuSans-2f" transform="translate(1209.828125 0)"/>
      <use xlink:href="#DejaVuSans-38" transform="translate(1260.5625 0)"/>
      <use xlink:href="#DejaVuSans-37" transform="translate(1333.75 0)"/>
      <use xlink:href="#DejaVuSans-18" transform="translate(1394.828125 0)"/>
      <use xlink:href="#DejaVuSans-c" transform="translate(1458.453125 0)"/>
     </g>
    </g>
    <g id="line2d_30">
     <path d="M 60.479609 32.489297 
L 69.479609 32.489297 
L 78.479609 32.489297 
" style="fill: none; stroke: #38bdf8; stroke-width: 2.5; stroke-linecap: square"/>
     <g>
      <use xlink:href="#m3d37633535" x="69.479609" y="32.489297" style="fill: #38bdf8; stroke: #38bdf8"/>
     </g>
    </g>
    <g id="text_19">
     <!-- Glucose only (SGLT1) -->
     <g style="fill: #c8cad0" transform="translate(85.679609 35.639297) scale(0.09 -0.09)">
      <defs>
       <path id="DejaVuSans-4f" d="M 603 4863 
L 1178 4863 
L 1178 0 
L 603 0 
L 603 4863 
z
" transform="scale(0.015625)"/>
       <path id="DejaVuSans-36" d="M 3425 4513 
L 3425 3897 
Q 3066 4069 2747 4153 
Q 2428 4238 2131 4238 
Q 1616 4238 1336 4038 
Q 1056 3838 1056 3469 
Q 1056 3159 1242 3001 
Q 1428 2844 1947 2747 
L 2328 2669 
Q 3034 2534 3370 2195 
Q 3706 1856 3706 1288 
Q 3706 609 3251 259 
Q 2797 -91 1919 -91 
Q 1588 -91 1214 -16 
Q 841 59 441 206 
L 441 856 
Q 825 641 1194 531 
Q 1563 422 1919 422 
Q 2459 422 2753 634 
Q 3047 847 3047 1241 
Q 3047 1584 2836 1778 
Q 2625 1972 2144 2069 
L 1759 2144 
Q 1053 2284 737 2584 
Q 422 2884 422 3419 
Q 422 4038 858 4394 
Q 1294 4750 2059 4750 
Q 2388 4750 2728 4690 
Q 3069 4631 3425 4513 
z
" transform="scale(0.015625)"/>
      </defs>
      <use xlink:href="#DejaVuSans-2a"/>
      <use xlink:href="#DejaVuSans-4f" transform="translate(77.484375 0)"/>
      <use xlink:href="#DejaVuSans-58" transform="translate(105.265625 0)"/>
      <use xlink:href="#DejaVuSans-46" transform="translate(168.640625 0)"/>
      <use xlink:href="#DejaVuSans-52" transform="translate(223.625 0)"/>
      <use xlink:href="#DejaVuSans-56" transform="translate(284.8125 0)"/>
      <use xlink:href="#DejaVuSans-48" transform="translate(336.90625 0)"/>
      <use xlink:href="#DejaVuSans-3" transform="translate(398.4375 0)"/>
      <use xlink:href="#DejaVuSans-52" transform="translate(430.21875 0)"/>
      <use xlink:href="#DejaVuSans-51" transform="translate(491.40625 0)"/>
      <use xlink:href="#DejaVuSans-4f" transform="translate(554.78125 0)"/>
      <use xlink:href="#DejaVuSans-5c" transform="translate(582.5625 0)"/>
      <use xlink:href="#DejaVuSans-3" transform="translate(641.75 0)"/>
      <use xlink:href="#DejaVuSans-b" transform="translate(673.53125 0)"/>
      <use xlink:href="#DejaVuSans-36" transform="translate(712.546875 0)"/>
      <use xlink:href="#DejaVuSans-2a" transform="translate(776.03125 0)"/>
      <use xlink:href="#DejaVuSans-2f" transform="translate(853.515625 0)"/>
      <use xlink:href="#DejaVuSans-37" transform="translate(895.46875 0)"/>
      <use xlink:href="#DejaVuSans-14" transform="translate(956.546875 0)"/>
      <use xlink:href="#DejaVuSans-c" transform="translate(1020.171875 0)"/>
     </g>
    </g>
    <g id="line2d_31">
     <path d="M 60.479609 45.99 
L 69.479609 45.99 
L 78.479609 45.99 
" style="fill: none; stroke: #a78bfa; stroke-width: 2.5; stroke-linecap: square"/>
     <g>
      <use xlink:href="#md59a84031b" x="69.479609" y="45.99" style="fill: #a78bfa; stroke: #a78bfa; stroke-linejoin: miter"/>
     </g>
    </g>
    <g id="text_20">
     <!-- Glucose + Fructose (SGLT1 + GLUT5) -->
     <g style="fill: #c8cad0" transform="translate(85.679609 49.14) scale(0.09 -0.09)">
      <defs>
       <path id="DejaVuSans-e" d="M 2944 4013 
L 2944 2272 
L 4684 2272 
L 4684 1741 
L 2944 1741 
L 2944 0 
L 2419 0 
L 2419 1741 
L 678 1741 
L 678 2272 
L 2419 2272 
L 2419 4013 
L 2944 4013 
z
" transform="scale(0.015625)"/>
      </defs>
      <use xlink:href="#DejaVuSans-2a"/>
      <use xlink:href="#DejaVuSans-4f" transform="translate(77.484375 0)"/>
      <use xlink:href="#DejaVuSans-58" transform="translate(105.265625 0)"/>
      <use xlink:href="#DejaVuSans-46" transform="translate(168.640625 0)"/>
      <use xlink:href="#DejaVuSans-52" transform="translate(223.625 0)"/>
      <use xlink:href="#DejaVuSans-56" transform="translate(284.8125 0)"/>
      <use xlink:href="#DejaVuSans-48" transform="translate(336.90625 0)"/>
      <use xlink:href="#DejaVuSans-3" transform="translate(398.4375 0)"/>
      <use xlink:href="#DejaVuSans-e" transform="translate(430.21875 0)"/>
      <use xlink:href="#DejaVuSans-3" transform="translate(514.015625 0)"/>
      <use xlink:href="#DejaVuSans-29" transform="translate(545.796875 0)"/>
      <use xlink:href="#DejaVuSans-55" transform="translate(596.03125 0)"/>
      <use xlink:href="#DejaVuSans-58" transform="translate(637.140625 0)"/>
      <use xlink:href="#DejaVuSans-46" transform="translate(700.515625 0)"/>
      <use xlink:href="#DejaVuSans-57" transform="translate(755.5 0)"/>
      <use xlink:href="#DejaVuSans-52" transform="translate(794.703125 0)"/>
      <use xlink:href="#DejaVuSans-56" transform="translate(855.890625 0)"/>
      <use xlink:href="#DejaVuSans-48" transform="translate(907.984375 0)"/>
      <use xlink:href="#DejaVuSans-3" transform="translate(969.515625 0)"/>
      <use xlink:href="#DejaVuSans-b" transform="translate(1001.296875 0)"/>
      <use xlink:href="#DejaVuSans-36" transform="translate(1040.3125 0)"/>
      <use xlink:href="#DejaVuSans-2a" transform="translate(1103.796875 0)"/>
      <use xlink:href="#DejaVuSans-2f" transform="translate(1181.28125 0)"/>
      <use xlink:href="#DejaVuSans-37" transform="translate(1223.234375 0)"/>
      <use xlink:href="#DejaVuSans-14" transform="translate(1284.3125 0)"/>
      <use xlink:href="#DejaVuSans-3" transform="translate(1347.9375 0)"/>
      <use xlink:href="#DejaVuSans-e" transform="translate(1379.71875 0)"/>
      <use xlink:href="#DejaVuSans-3" transform="translate(1463.515625 0)"/>
      <use xlink:href="#DejaVuSans-2a" transform="translate(1495.296875 0)"/>
      <use xlink:href="#DejaVuSans-2f" transform="translate(1572.78125 0)"/>
      <use xlink:href="#DejaVuSans-38" transform="translate(1623.515625 0)"/>
      <use xlink:href="#DejaVuSans-37" transform="translate(1696.703125 0)"/>
      <use xlink:href="#DejaVuSans-18" transform="translate(1757.78125 0)"/>
      <use xlink:href="#DejaVuSans-c" transform="translate(1821.40625 0)"/>
     </g>
    </g>
   </g>
  </g>
 </g>
 <defs>
  <clipPath id="ped0b00bbf7">
   <rect x="52.379609" y="7.2" width="473.437019" height="293"/>
  </clipPath>
 </defs>
</svg>
